<svg height="512pt" viewBox="-28 0 511 512" width="512pt" xmlns="http://www.w3.org/2000/svg"><path d="m448.878906 128.5c-28.5-49.800781-126.597656-33.601562-220.796875 9.601562-17.703125 8.097657-35.402343 17.097657-52.5 26.996094-57.003906 33.003906-105.902343 72.300782-138 111-34.800781 42.601563-45.601562 80.703125-30.300781 107.402344 12.296875 21.597656 37.800781 30.597656 70.199219 30.597656 42.601562 0 97.199219-15.597656 150.601562-40.199218 17.996094-8.097657 35.398438-17.097657 52.5-27 57-33 105.898438-72.296876 137.996094-111 34.800781-42.597657 45.601563-80.699219 30.300781-107.398438zm-53.699218 88.199219c-29.398438 36-75.601563 73.199219-129.597657 104.398437-12.601562 7.203125-25.203125 13.800782-37.5 19.800782-96.300781 47.097656-179.101562 54.597656-195 27.601562-8.402343-14.699219 2.097657-42.003906 27.898438-73.199219 29.398437-36 75.601562-73.203125 129.601562-104.402343 12.597657-7.199219 25.199219-13.800782 37.5-19.800782 60-29.097656 114.296875-43.199218 150.898438-43.199218 22.203125 0 38.101562 5.402343 44.101562 15.601562 8.398438 14.699219-2.101562 42-27.902343 73.199219zm0 0" fill="#a8d32a"/><path d="m418.578125 235.898438c-32.097656 38.703124-80.996094 78-137.996094 111-17.101562 9.902343-34.503906 18.902343-52.5 27v-33c12.296875-6 24.898438-12.597657 37.5-19.796876 54-31.203124 100.199219-68.402343 129.597657-104.402343 25.800781-31.199219 36.300781-58.5 27.902343-73.199219-6-10.199219-21.898437-15.601562-44.101562-15.601562-36.601563 0-90.898438 14.101562-150.898438 43.199218v-32.996094c94.199219-43.203124 192.296875-59.402343 220.796875-9.601562 15.300782 26.699219 4.5 64.800781-30.300781 107.398438zm0 0" fill="#93bf00"/><path d="m418.578125 276.097656c-32.097656-38.699218-80.996094-77.996094-137.996094-111-17.101562-9.898437-34.800781-18.898437-52.5-26.996094-94.203125-43.203124-192.003906-59.402343-220.800781-9.601562-15.300781 26.699219-4.5 64.800781 30.300781 107.398438 32.097657 38.703124 80.996094 78 137.996094 111 17.101563 9.902343 34.503906 18.902343 52.5 27 53.402344 24.601562 108 40.199218 150.601563 40.199218 32.398437 0 57.902343-9 70.199218-30.597656 15.300782-26.699219 4.5-64.800781-30.300781-107.402344zm4.503906 92.402344c-15.601562 27-98.699219 19.5-195-27.601562-12.300781-6-24.902343-12.597657-37.5-19.796876-54-31.203124-100.203125-68.402343-129.601562-104.402343-25.800781-31.199219-36.300781-58.5-27.898438-73.199219 6-10.199219 21.898438-15.601562 44.097657-15.601562 36.601562 0 91.199218 14.101562 150.902343 43.199218 12.296875 6 24.898438 12.601563 37.5 19.800782 54 31.203124 100.199219 68.402343 129.597657 104.402343 25.800781 31.199219 36.300781 58.5 27.902343 73.199219zm0 0" fill="#ec5569"/><path d="m448.878906 383.5c-12.296875 21.597656-37.796875 30.597656-70.195312 30.597656-42.601563 0-97.203125-15.597656-150.601563-40.199218v-33c96.300781 47.101562 179.398438 54.601562 195 27.601562 8.398438-14.699219-2.101562-42-27.902343-73.199219-29.398438-36-75.601563-73.199219-129.597657-104.402343-12.601562-7.199219-25.203125-13.796876-37.5-19.796876v-33c17.699219 8.097657 35.398438 17.097657 52.5 26.996094 57 33.003906 105.898438 72.300782 137.996094 111 34.800781 42.601563 45.601563 80.703125 30.300781 107.402344zm0 0" fill="#e63950"/><path d="m228.082031 0c-68.101562 0-105 132.398438-105 256s36.898438 256 105 256c68.101563 0 105-132.398438 105-256s-36.898437-256-105-256zm0 482c-35.402343 0-75-97.300781-75-226s39.597657-226 75-226c35.398438 0 75 97.300781 75 226s-39.601562 226-75 226zm0 0" fill="#fdbf00"/><path d="m228.082031 211c-24.902343 0-45 20.097656-45 45 0 24.898438 20.097657 45 45 45 24.898438 0 45-20.101562 45-45 0-24.902344-20.101562-45-45-45zm0 0" fill="#68544f"/><path d="m33.007812 338.046875c-2.605468 0-5.230468-.335937-7.820312-1.039063-7.75-2.066406-14.210938-7.046874-18.226562-13.992187-8.246094-14.296875-3.339844-32.679687 10.972656-40.957031l.03125-.027344c14.339844-8.246094 32.707031-3.3125 40.984375 11.015625 8.246093 14.3125 3.324219 32.695313-11 40.972656-4.613281 2.664063-9.742188 4.027344-14.941407 4.027344zm0 0" fill="#68544f"/><path d="m370.652344 428.984375c-5.183594 0-10.3125-1.363281-14.941406-4.03125-14.324219-8.273437-19.246094-26.65625-10.984376-40.984375 3.984376-6.929688 10.460938-11.894531 18.191407-13.976562 7.78125-2.09375 15.851562-1.007813 22.792969 2.988281 14.328124 8.292969 19.234374 26.675781 10.972656 40.988281-3.996094 6.929688-10.457032 11.910156-18.222656 13.972656-2.578126.691406-5.199219 1.042969-7.808594 1.042969zm0 0" fill="#53433f"/><path d="m228.082031 301v-90c24.898438 0 45 20.097656 45 45 0 24.898438-20.101562 45-45 45zm0 0" fill="#53433f"/><path d="m333.082031 256c0 123.601562-36.898437 256-105 256v-30c35.398438 0 75-97.300781 75-226s-39.601562-226-75-226v-30c68.101563 0 105 132.398438 105 256zm0 0" fill="#ff9f00"/><path d="m280.582031 91c-16.539062 0-30-13.460938-30-30s13.460938-30 30-30c16.535157 0 30 13.460938 30 30s-13.464843 30-30 30zm0 0" fill="#53433f"/></svg>